<mxfile host="app.diagrams.net" modified="2024-02-16T07:20:22.728Z" agent="Mozilla/5.0 (Windows NT 10.0; Win64; x64) AppleWebKit/537.36 (KHTML, like Gecko) Chrome/120.0.0.0 Safari/537.36 OPR/106.0.0.0" etag="HW27VBaZkrRJjMb-ysrK" version="23.1.5" type="device">
  <diagram name="Страница — 1" id="LjP-SMXbt3aF3taORO5-">
    <mxGraphModel dx="1009" dy="581" grid="1" gridSize="10" guides="1" tooltips="1" connect="1" arrows="1" fold="1" page="1" pageScale="1" pageWidth="827" pageHeight="1169" math="0" shadow="0">
      <root>
        <mxCell id="0" />
        <mxCell id="1" parent="0" />
        <mxCell id="Emr0r-mcePo9aCcKKXYE-7" value="" style="rounded=0;whiteSpace=wrap;html=1;fontFamily=Helvetica;fontSize=11;fontColor=default;labelBackgroundColor=default;" vertex="1" parent="1">
          <mxGeometry x="100" y="40" width="620" height="420" as="geometry" />
        </mxCell>
        <mxCell id="Ph3D6FclOzKC584aR-1m-20" style="rounded=0;orthogonalLoop=1;jettySize=auto;html=1;exitX=1;exitY=0.3333333333333333;exitDx=0;exitDy=0;exitPerimeter=0;entryX=0;entryY=0.5;entryDx=0;entryDy=0;endArrow=none;endFill=0;" parent="1" source="Ph3D6FclOzKC584aR-1m-1" target="Ph3D6FclOzKC584aR-1m-13" edge="1">
          <mxGeometry relative="1" as="geometry" />
        </mxCell>
        <mxCell id="Ph3D6FclOzKC584aR-1m-21" style="rounded=0;orthogonalLoop=1;jettySize=auto;html=1;exitX=1;exitY=0.3333333333333333;exitDx=0;exitDy=0;exitPerimeter=0;entryX=0;entryY=0.5;entryDx=0;entryDy=0;endArrow=none;endFill=0;" parent="1" source="Ph3D6FclOzKC584aR-1m-1" target="Ph3D6FclOzKC584aR-1m-14" edge="1">
          <mxGeometry relative="1" as="geometry" />
        </mxCell>
        <mxCell id="Emr0r-mcePo9aCcKKXYE-2" style="rounded=0;orthogonalLoop=1;jettySize=auto;html=1;exitX=1;exitY=0.3333333333333333;exitDx=0;exitDy=0;exitPerimeter=0;entryX=0;entryY=0.5;entryDx=0;entryDy=0;endArrow=none;endFill=0;" edge="1" parent="1" source="Ph3D6FclOzKC584aR-1m-1" target="Emr0r-mcePo9aCcKKXYE-1">
          <mxGeometry relative="1" as="geometry" />
        </mxCell>
        <mxCell id="Ph3D6FclOzKC584aR-1m-1" value="Пользователь" style="shape=umlActor;verticalLabelPosition=bottom;verticalAlign=top;html=1;outlineConnect=0;" parent="1" vertex="1">
          <mxGeometry x="50" y="259" width="30" height="60" as="geometry" />
        </mxCell>
        <mxCell id="Ph3D6FclOzKC584aR-1m-25" style="rounded=0;orthogonalLoop=1;jettySize=auto;html=1;exitX=0;exitY=0.3333333333333333;exitDx=0;exitDy=0;exitPerimeter=0;entryX=1;entryY=0.5;entryDx=0;entryDy=0;endArrow=none;endFill=0;" parent="1" source="Ph3D6FclOzKC584aR-1m-2" target="Ph3D6FclOzKC584aR-1m-13" edge="1">
          <mxGeometry relative="1" as="geometry" />
        </mxCell>
        <mxCell id="Ph3D6FclOzKC584aR-1m-26" style="rounded=0;orthogonalLoop=1;jettySize=auto;html=1;exitX=0;exitY=0.3333333333333333;exitDx=0;exitDy=0;exitPerimeter=0;entryX=1;entryY=0.5;entryDx=0;entryDy=0;endArrow=none;endFill=0;" parent="1" source="Ph3D6FclOzKC584aR-1m-2" target="Ph3D6FclOzKC584aR-1m-15" edge="1">
          <mxGeometry relative="1" as="geometry" />
        </mxCell>
        <mxCell id="Emr0r-mcePo9aCcKKXYE-4" style="rounded=0;orthogonalLoop=1;jettySize=auto;html=1;exitX=0;exitY=0.3333333333333333;exitDx=0;exitDy=0;exitPerimeter=0;entryX=1;entryY=0.5;entryDx=0;entryDy=0;endArrow=none;endFill=0;" edge="1" parent="1" source="Ph3D6FclOzKC584aR-1m-2" target="Emr0r-mcePo9aCcKKXYE-3">
          <mxGeometry relative="1" as="geometry" />
        </mxCell>
        <mxCell id="Emr0r-mcePo9aCcKKXYE-5" style="edgeStyle=none;rounded=0;orthogonalLoop=1;jettySize=auto;html=1;exitX=0;exitY=0.3333333333333333;exitDx=0;exitDy=0;exitPerimeter=0;entryX=1;entryY=0.5;entryDx=0;entryDy=0;strokeColor=default;align=center;verticalAlign=middle;fontFamily=Helvetica;fontSize=11;fontColor=default;labelBackgroundColor=default;endArrow=none;endFill=0;" edge="1" parent="1" source="Ph3D6FclOzKC584aR-1m-2" target="Emr0r-mcePo9aCcKKXYE-1">
          <mxGeometry relative="1" as="geometry" />
        </mxCell>
        <mxCell id="Emr0r-mcePo9aCcKKXYE-9" value="" style="edgeStyle=none;rounded=0;orthogonalLoop=1;jettySize=auto;html=1;strokeColor=default;align=center;verticalAlign=middle;fontFamily=Helvetica;fontSize=11;fontColor=default;labelBackgroundColor=default;endArrow=none;endFill=0;" edge="1" parent="1" source="Ph3D6FclOzKC584aR-1m-2" target="Emr0r-mcePo9aCcKKXYE-7">
          <mxGeometry relative="1" as="geometry" />
        </mxCell>
        <mxCell id="Ph3D6FclOzKC584aR-1m-2" value="Администратор" style="shape=umlActor;verticalLabelPosition=bottom;verticalAlign=top;html=1;outlineConnect=0;" parent="1" vertex="1">
          <mxGeometry x="737" y="259" width="30" height="60" as="geometry" />
        </mxCell>
        <mxCell id="Ph3D6FclOzKC584aR-1m-13" value="Поиск/фильтрация товаров" style="ellipse;whiteSpace=wrap;html=1;" parent="1" vertex="1">
          <mxGeometry x="354" y="330" width="120" height="61" as="geometry" />
        </mxCell>
        <mxCell id="Ph3D6FclOzKC584aR-1m-14" value="Заказ товаров" style="ellipse;whiteSpace=wrap;html=1;" parent="1" vertex="1">
          <mxGeometry x="354" y="190" width="120" height="50" as="geometry" />
        </mxCell>
        <mxCell id="Ph3D6FclOzKC584aR-1m-15" value="Добавление, удаление, изменение товаров" style="ellipse;whiteSpace=wrap;html=1;" parent="1" vertex="1">
          <mxGeometry x="350" y="250" width="124" height="59" as="geometry" />
        </mxCell>
        <mxCell id="Emr0r-mcePo9aCcKKXYE-1" value="Регистрация и авторизация" style="ellipse;whiteSpace=wrap;html=1;" vertex="1" parent="1">
          <mxGeometry x="354" y="70" width="120" height="50" as="geometry" />
        </mxCell>
        <mxCell id="Emr0r-mcePo9aCcKKXYE-3" value="Просмотр каталога товаров" style="ellipse;whiteSpace=wrap;html=1;" vertex="1" parent="1">
          <mxGeometry x="354" y="130" width="120" height="50" as="geometry" />
        </mxCell>
      </root>
    </mxGraphModel>
  </diagram>
</mxfile>
